<svg width="16" height="16" viewBox="0 0 16 16" fill="none" xmlns="http://www.w3.org/2000/svg" class="ShipToHeaderItem_GeoTooltip__icon__j05r8 ShipToHeaderItem_GeoTooltip__redHeaderIcon__j05r8"><path d="M9.11533 6.50608C9.51433 5.93733 9.75 5.24667 9.75 4.5C9.75 2.56742 8.18258 1 6.25 1C4.31742 1 2.75 2.56742 2.75 4.5V15L9.11533 6.50608ZM12.375 13.25H7.125C6.64375 13.25 6.25 13.6437 6.25 14.125C6.25 14.6062 6.64375 15 7.125 15H12.375C12.8562 15 13.25 14.6062 13.25 14.125C13.25 13.6437 12.8562 13.25 12.375 13.25ZM7.41667 4.5C7.41667 5.144 6.894 5.66667 6.25 5.66667C5.606 5.66667 5.08333 5.144 5.08333 4.5C5.08333 3.856 5.606 3.33333 6.25 3.33333C6.894 3.33333 7.41667 3.856 7.41667 4.5Z" fill="currentColor"></path></svg>