<svg width="16" height="17" viewBox="0 0 16 17" fill="none" xmlns="http://www.w3.org/2000/svg"><path d="M6.0879 5.66103C6.01801 5.87061 5.8207 6.01212 5.59834 6.01212H1.01667C0.514776 6.01212 0.308628 6.6517 0.717269 6.94101L4.40697 9.55328C4.59112 9.68366 4.66822 9.91796 4.59711 10.1311L3.18369 14.3683C3.0269 14.8384 3.56652 15.2336 3.97258 14.9462L7.70066 12.3073C7.87982 12.1805 8.12028 12.1805 8.29942 12.3073L12.0265 14.9462C12.4326 15.2337 12.9722 14.8385 12.8155 14.3684L11.4029 10.1311C11.3318 9.91793 11.4089 9.68368 11.5931 9.55332L15.2827 6.94101C15.6914 6.65169 15.4852 6.01212 14.9833 6.01212H10.4018C10.1794 6.01212 9.98209 5.87061 9.91221 5.66103L8.4896 1.39473C8.33351 0.926612 7.6666 0.92661 7.5105 1.39473L6.0879 5.66103Z" fill="#D9D9D9"></path><path d="M6.0879 5.66103C6.01801 5.87061 5.8207 6.01212 5.59834 6.01212H1.01667C0.514776 6.01212 0.308628 6.6517 0.717268 6.94101L4.40697 9.55328C4.59112 9.68366 4.66822 9.91796 4.59711 10.1311L3.18369 14.3683C3.0269 14.8384 3.56652 15.2336 3.97258 14.9462L7.70066 12.3073C7.87982 12.1805 8.12028 12.1805 8.29942 12.3073L12.0265 14.9462C12.4326 15.2337 12.9722 14.8385 12.8155 14.3684L11.4029 10.1311C11.3318 9.91793 11.4089 9.68368 11.5931 9.55332L15.2827 6.94101C15.6914 6.65169 15.4852 6.01212 14.9833 6.01212H10.4018C10.1794 6.01212 9.98209 5.87061 9.91221 5.66103L8.4896 1.39473C8.33351 0.926612 7.6666 0.92661 7.5105 1.39473L6.0879 5.66103Z" fill="#FFD13D"></path></svg>